<?xml version="1.0" standalone="no"?><!DOCTYPE svg PUBLIC "-//W3C//DTD SVG 1.1//EN" "http://www.w3.org/Graphics/SVG/1.1/DTD/svg11.dtd"><svg t="1665619233050" class="icon" viewBox="0 0 1024 1024" version="1.1" xmlns="http://www.w3.org/2000/svg" p-id="800" xmlns:xlink="http://www.w3.org/1999/xlink" width="200" height="200"><path d="M315.008 224.032a32 32 0 0 0 32-32v-160a32 32 0 0 0-64 0v160a32 32 0 0 0 32 32zM751.52 224.032a32 32 0 0 0 32-32v-160a32 32 0 0 0-64 0v160a32 32 0 0 0 32 32zM411.008 78.848h244.512v64h-244.512z" fill="#2c2c2c" p-id="801"></path><path d="M984.96 78.848h-137.44v64H960v817.12H64V142.848h155.008v-64H39.04A39.04 39.04 0 0 0 0 117.824V984.96a39.04 39.04 0 0 0 39.008 39.008H984.96A39.04 39.04 0 0 0 1024 984.96V117.824a39.04 39.04 0 0 0-39.04-38.976z" fill="#2c2c2c" p-id="802"></path><path d="M894.208 361.344H542.464v-69.76h-64v69.76H126.72v64h90.752L127.68 728.48a31.296 31.296 0 0 0 9.28 36.224l0.416 0.416c0.64 0.48 0.96 1.216 1.664 1.664a216.224 216.224 0 0 0 116.128 28.96 216.256 216.256 0 0 0 116.16-28.96c0.224-0.16 0.32-0.416 0.576-0.608a31.072 31.072 0 0 0 7.04-7.04c0.48-0.64 1.12-1.216 1.568-1.92a31.36 31.36 0 0 0 3.616-8.832c0.256-0.864 0.64-1.664 0.8-2.56a31.328 31.328 0 0 0 0.064-8.416 30.496 30.496 0 0 0-0.384-4.16c-0.16-0.704 0-1.344-0.16-2.016l-90.56-305.92h184.544v69.76h64v-69.76h187.616l-90.56 305.92c-0.192 0.672 0 1.344-0.16 2.016a31.04 31.04 0 0 0-0.352 4.032 31.424 31.424 0 0 0 0 8.608c0.192 0.8 0.576 1.536 0.768 2.368a31.488 31.488 0 0 0 3.68 8.96c0.448 0.704 1.056 1.216 1.536 1.856a31.136 31.136 0 0 0 7.04 7.104c0.256 0.16 0.384 0.448 0.64 0.64a216.384 216.384 0 0 0 116.128 28.928 216.384 216.384 0 0 0 116.16-28.96c0.64-0.448 1.024-1.184 1.664-1.696l0.32-0.32a31.328 31.328 0 0 0 9.312-36.352l-89.728-303.072h87.68zM315.2 722.72a187.52 187.52 0 0 1-60 9.024 188.416 188.416 0 0 1-59.104-8.736l59.584-201.28z m512.704 0.288a203.84 203.84 0 0 1-119.104-0.32l59.52-200.992z" fill="#2c2c2c" p-id="803"></path></svg>